<?xml version="1.0" standalone="no"?>
<!DOCTYPE svg PUBLIC "-//W3C//DTD SVG 20010904//EN"
 "http://www.w3.org/TR/2001/REC-SVG-20010904/DTD/svg10.dtd">
<svg version="1.0" xmlns="http://www.w3.org/2000/svg"
 width="512.000000pt" height="512.000000pt" viewBox="0 0 512.000000 512.000000"
 preserveAspectRatio="xMidYMid meet">

<g transform="translate(0.000000,512.000000) scale(0.100000,-0.100000)"
fill="#000000" stroke="none">
<path d="M2421 4844 c-171 -46 -324 -208 -360 -382 -46 -222 61 -456 255 -559
54 -28 83 -38 167 -57 20 -5 27 -12 27 -31 0 -22 -5 -25 -33 -25 -18 0 -40 -6
-49 -12 -23 -19 -1039 -1191 -1045 -1206 -3 -6 2 -23 11 -37 37 -57 31 -63
577 565 282 325 519 590 526 590 11 0 13 -147 13 -814 l0 -814 -386 -873
c-417 -945 -408 -920 -337 -927 24 -2 35 2 46 20 8 13 174 384 368 825 195
442 356 803 359 803 3 0 164 -361 359 -803 194 -441 360 -812 368 -825 11 -18
22 -22 46 -20 71 7 80 -18 -337 927 l-386 873 0 814 c0 665 2 814 13 814 7 0
244 -265 526 -590 545 -627 540 -622 576 -566 13 19 14 29 5 45 -12 23 -1014
1179 -1038 1199 -9 6 -31 12 -49 12 -28 0 -33 3 -33 25 0 19 7 26 28 31 83 19
112 29 166 57 32 17 84 57 115 88 201 201 202 518 1 719 -73 73 -138 112 -225
135 -73 19 -202 18 -274 -1z m262 -104 c114 -35 217 -131 258 -239 92 -246
-59 -506 -320 -552 -250 -44 -492 181 -468 436 25 263 278 433 530 355z"/>
</g>
</svg>
